<?xml version="1.0" encoding="utf-8"?>
<!-- Generator: Adobe Illustrator 24.1.2, SVG Export Plug-In . SVG Version: 6.00 Build 0)  -->
<svg version="1.1" id="Layer_1" xmlns="http://www.w3.org/2000/svg" xmlns:xlink="http://www.w3.org/1999/xlink" x="0px" y="0px"
	 viewBox="0 0 1920 1080" style="enable-background:new 0 0 1920 1080;" xml:space="preserve">
<style type="text/css">
	.st0{fill:#FFFFFF;}
	.st1{fill:#FBFF5A;}
	.st2{font-family:'PalatinoLinotype-Bold';}
	.st3{font-size:153px;}
</style>
<g>
	<rect x="366" y="224" class="st0" width="87" height="87"/>
</g>
<rect x="33" y="41" class="st1" width="1896.08" height="813.23"/>
<path d="M407.08,260.17c0,9.79-3.57,17.43-10.72,22.92c-7.15,5.49-15.22,8.23-24.22,8.23c-3.05,0-6.13-0.33-9.23-1
	c-0.46-1.28-1.35-2.99-2.67-5.13l1.6-1.57c2.14,0.67,4.09,1,5.87,1c5.14,0,9.26-1.7,12.36-5.1c3.1-3.4,4.65-8.16,4.65-14.29
	c0-13.26-6.38-19.89-19.15-19.89c-1.53,0-4.58,0.29-9.15,0.86c-0.46,1.14-0.69,8.91-0.69,23.31v37.7c0,11.31,0.33,18.67,0.99,22.1
	c0.25,1.38,1.12,2.26,2.59,2.64c0.46,0.1,3.94,0.33,10.45,0.71l0.84,0.78v4.7l-0.76,0.71c-6.97-0.29-15.31-0.43-25.02-0.43
	c-10.94,0-18.77,0.14-23.5,0.43l-0.76-0.64v-4.78l0.84-0.78c5.14-0.29,8.09-0.52,8.85-0.71c1.47-0.38,2.34-1.26,2.59-2.64
	c0.66-3.42,0.99-10.79,0.99-22.1v-37.7c0-11.31-0.33-18.67-0.99-22.1c-0.26-1.38-1.12-2.26-2.59-2.64
	c-0.76-0.19-3.74-0.43-8.93-0.71l-0.76-0.78v-4.7l0.84-0.71c4.98,0.29,12.64,0.43,22.96,0.43c4.27,0,10.43-0.07,18.46-0.21
	c8.04-0.14,12.66-0.21,13.88-0.21c13.93,0,22.99,3.3,27.16,9.91C406.01,251.19,407.08,255.32,407.08,260.17z"/>
<path d="M559.43,338.14l-0.76,0.71c-0.36,0-1.32-0.02-2.9-0.07c-6.97-0.24-11.32-0.36-13.05-0.36c-2.59,0-6.71,0.14-12.36,0.43
	c-0.2-1.14-1.17-3.04-2.9-5.7l-18.92-29.51l-8.47-12.05c-1.07-1.47-2.57-2.92-4.5-4.35l0.84-2.42c1.17,0.05,2.03,0.07,2.59,0.07
	c4.98,0,8.9-0.74,11.75-2.21c2.59-1.33,4.98-3.66,7.17-6.99c2.19-3.33,3.28-7.29,3.28-11.9c0-8.03-3.2-13.45-9.61-16.25
	c-3.05-1.33-7.5-2-13.35-2c-2.54,0-4.99,0.19-7.32,0.57c-0.51,4.66-0.76,12.59-0.76,23.81v37.28c0,11.31,0.33,18.67,0.99,22.1
	c0.25,1.38,1.12,2.26,2.59,2.64c0.76,0.19,3.74,0.43,8.93,0.71l0.76,0.71v4.78l-0.69,0.71c-5.09-0.29-12.92-0.43-23.5-0.43
	c-10.94,0-18.77,0.14-23.5,0.43l-0.76-0.64v-4.85l0.76-0.71c5.19-0.29,8.16-0.52,8.93-0.71c1.47-0.38,2.34-1.26,2.59-2.64
	c0.66-3.42,0.99-10.79,0.99-22.1v-37.7c0-11.31-0.33-18.67-0.99-22.1c-0.26-1.38-1.12-2.26-2.59-2.64
	c-0.76-0.19-3.74-0.43-8.93-0.71l-0.76-0.71v-4.85l0.76-0.64c4.98,0.29,12.82,0.43,23.5,0.43c6.2,0,11.24-0.07,15.11-0.21
	c7.68-0.29,13.43-0.43,17.24-0.43c8.8,0,15.26,0.74,19.38,2.21c5.54,2,9.26,5.37,11.14,10.12c0.92,2.33,1.37,5.09,1.37,8.27
	c0,12.93-7.78,22.1-23.34,27.51c2.54,3.99,5.24,8.03,8.09,12.12l11.75,16.89c6.92,9.98,11.52,15.66,13.81,17.03
	c1.17,0.71,2.8,1.07,4.88,1.07l0.76,0.71V338.14z"/>
<path d="M712.84,338.14l-0.69,0.71c-11.29-0.29-18.11-0.43-20.45-0.43c-9.36,0-18.05,0.14-26.09,0.43l-0.69-0.71v-4.49l0.76-0.78
	l6.64-0.36c2.8-0.14,4.2-1.07,4.2-2.78c0-1-0.71-3.23-2.14-6.7L668.21,308c-7.02-0.1-14.19-0.14-21.51-0.14
	c-3.97,0-9.87,0.05-17.7,0.14l-3.36,8.7c-2.54,6.6-3.81,10.74-3.81,12.4c0,1.81,1.19,2.88,3.59,3.21c1.32,0.19,3.92,0.38,7.78,0.57
	l0.76,0.71v4.56l-0.76,0.71c-9.41-0.29-15.46-0.43-18.16-0.43c-2.09,0-7.25,0.14-15.49,0.43l-0.76-0.64v-4.63l0.84-0.71
	c5.24-0.29,8.46-1.26,9.65-2.92c1.19-1.66,5.68-11.57,13.46-29.72l19.91-46.54c1.47-3.61,3.71-9.05,6.71-16.32h10.83l40.43,88.88
	c1.58,3.37,3,5.27,4.27,5.7c1.68,0.57,4.09,0.86,7.25,0.86l0.69,0.78V338.14z M664.48,299.8l-16.33-37.35l-15.64,37.35
	c4.17,0.14,9.59,0.21,16.25,0.21C655.22,300.01,660.46,299.94,664.48,299.8z"/>
<path d="M856.72,238.29c-0.61,3.52-0.94,7.15-0.99,10.91l-0.15,11.9l-0.76,0.71h-4.81l-0.84-0.64c-0.25-6.08-0.53-9.65-0.84-10.69
	c-0.61-1.9-2.24-3.02-4.88-3.35c-1.02-0.14-5.8-0.21-14.34-0.21h-10.22c-0.1,1.66-0.15,8.27-0.15,19.81v40.48
	c0,11.31,0.33,18.67,0.99,22.1c0.25,1.38,1.12,2.26,2.59,2.64c0.76,0.19,3.74,0.43,8.92,0.71l0.76,0.71v4.78l-0.76,0.71
	c-5.03-0.29-12.87-0.43-23.5-0.43c-10.88,0-18.72,0.14-23.5,0.43l-0.69-0.64v-4.85l0.76-0.71c5.19-0.29,8.16-0.52,8.93-0.71
	c1.47-0.38,2.34-1.26,2.59-2.64c0.66-3.42,0.99-10.79,0.99-22.1v-40.48c0-11.74-0.08-18.34-0.23-19.81H785.7
	c-9.1,0-14.42,0.26-15.94,0.78c-0.81,0.29-1.37,0.64-1.68,1.07c-0.46,0.76-0.84,2.28-1.14,4.56c-0.36,2.52-0.58,5.11-0.69,7.77
	l-0.76,0.71h-4.81l-0.84-0.71l-0.15-12.19c-0.05-3.42-0.36-6.96-0.92-10.62l0.69-0.71c3,0.48,13.93,0.71,32.8,0.71h30.9
	c17.39,0,28.33-0.24,32.8-0.71L856.72,238.29z"/>
<path d="M968.84,395.33l-1.06-2c-7.21-0.8-11.42-5-12.4-2c-1.89,5.99-3.25-3.54-3.6-7.41c-0.92-9.61-1.38-30.3-1.38-62.07V215.93
	c0-31.77,0.46-52.46,1.38-62.07c0.35-3.87,1.55-6.34,3.6-7.41c1.06-0.53,5.19-1.2,12.4-2l1.06-2v-13.62l-1.06-1.8
	c-6.78,0.8-17.62,1.2-32.53,1.2c-14.98,0-25.85-0.4-32.63-1.2l-1.06,1.8v13.62l1.06,2c7.21,0.8,11.34,1.47,12.4,2
	c2.05,1.07,3.25,3.54,3.6,7.41c0.92,9.61,1.38,30.3,1.38,62.07v105.92c0,31.77-0.46,52.46-1.38,62.07c-0.35,3.87-1.56,6.34-3.6,7.41
	c-1.06,0.53-5.19,1.2-12.4,2l-1.06,2v13.42l0.95,2c7.06-0.8,17.94-1.2,32.63-1.2c14.76,0,25.68,0.4,32.74,1.2l0.95-2V395.33z"/>
<path d="M1097.82,305.5c0,7.84-2.39,14.75-7.17,20.74c-4.17,5.27-9.64,9.19-16.4,11.76c-6.2,2.38-13.6,3.56-22.2,3.56
	c-10.68,0-21.16-2.28-31.43-6.84l-0.92-1.57c1.42-5.46,2.14-13.23,2.14-23.31l0.76-0.71h4.88l0.69,0.71v1.64
	c0,2.66,0.31,6.18,0.92,10.55c1.83,3.04,5.11,5.66,9.84,7.84c4.93,2.28,10.07,3.42,15.41,3.42c10.07,0,17.04-3.28,20.9-9.84
	c1.98-3.37,2.98-6.87,2.98-10.48c0-6.08-2.72-10.43-8.16-13.04c-2.7-1.28-7.04-2.35-13.05-3.21c-13.58-1.95-22.51-4.39-26.78-7.34
	c-6.46-4.47-9.69-11.38-9.69-20.74c0-9.74,3.51-17.51,10.53-23.31c7.43-6.08,17.75-9.12,30.97-9.12c11.9,0,21.51,1.78,28.84,5.35
	l0.53,1.71c-1.22,5.66-1.96,12.45-2.21,20.38l-0.84,0.71h-4.81l-0.76-0.71c-0.15-5.7-0.41-9.41-0.76-11.12
	c-1.58-2.23-4.32-4.13-8.24-5.7c-4.17-1.61-8.52-2.42-13.05-2.42c-6.82,0-12.21,1.69-16.17,5.06c-3.71,3.18-5.57,7.29-5.57,12.33
	c0,5.46,2.11,9.48,6.33,12.05c2.75,1.66,9.23,3.25,19.45,4.78c1.07,0.14,4.04,0.62,8.93,1.43c3,0.48,5.77,1.17,8.32,2.07
	c5.14,1.81,9,4.56,11.6,8.27C1096.42,294.43,1097.82,299.47,1097.82,305.5z"/>
<path d="M1246.12,238.29c-0.61,3.52-0.94,7.15-0.99,10.91l-0.15,11.9l-0.76,0.71h-4.81l-0.84-0.64c-0.25-6.08-0.53-9.65-0.84-10.69
	c-0.61-1.9-2.24-3.02-4.88-3.35c-1.02-0.14-5.8-0.21-14.34-0.21h-10.22c-0.1,1.66-0.15,8.27-0.15,19.81v40.48
	c0,11.31,0.33,18.67,0.99,22.1c0.25,1.38,1.12,2.26,2.59,2.64c0.76,0.19,3.74,0.43,8.93,0.71l0.76,0.71v4.78l-0.76,0.71
	c-5.04-0.29-12.87-0.43-23.5-0.43c-10.88,0-18.72,0.14-23.5,0.43l-0.69-0.64v-4.85l0.76-0.71c5.19-0.29,8.16-0.52,8.93-0.71
	c1.47-0.38,2.34-1.26,2.59-2.64c0.66-3.42,0.99-10.79,0.99-22.1v-40.48c0-11.74-0.08-18.34-0.23-19.81h-10.91
	c-9.1,0-14.42,0.26-15.94,0.78c-0.81,0.29-1.37,0.64-1.68,1.07c-0.46,0.76-0.84,2.28-1.14,4.56c-0.36,2.52-0.58,5.11-0.69,7.77
	l-0.76,0.71h-4.81l-0.84-0.71l-0.15-12.19c-0.05-3.42-0.36-6.96-0.92-10.62l0.69-0.71c3,0.48,13.94,0.71,32.8,0.71h30.9
	c17.39,0,28.33-0.24,32.8-0.71L1246.12,238.29z"/>
<path d="M1413.58,338.14l-0.76,0.71c-5.04-0.29-12.87-0.43-23.5-0.43c-10.88,0-18.72,0.14-23.5,0.43l-0.76-0.64v-4.85l0.84-0.71
	c5.19-0.29,8.16-0.52,8.93-0.71c1.47-0.38,2.34-1.26,2.59-2.64c0.66-3.42,0.99-10.79,0.99-22.1v-17.18
	c-2.59-0.24-10.83-0.36-24.72-0.36c-12.82,0-21.26,0.12-25.33,0.36v17.18c0,11.31,0.33,18.67,0.99,22.1
	c0.25,1.38,1.12,2.26,2.59,2.64c0.76,0.19,3.74,0.43,8.93,0.71l0.76,0.71v4.78l-0.69,0.71c-5.09-0.29-12.92-0.43-23.5-0.43
	c-10.93,0-18.77,0.14-23.5,0.43l-0.76-0.64v-4.85l0.76-0.71c5.19-0.29,8.16-0.52,8.93-0.71c1.47-0.38,2.34-1.26,2.59-2.64
	c0.66-3.42,0.99-10.79,0.99-22.1v-37.7c0-11.31-0.33-18.67-0.99-22.1c-0.25-1.38-1.12-2.26-2.59-2.64
	c-0.76-0.19-3.74-0.43-8.93-0.71l-0.76-0.71v-4.85l0.76-0.64c4.88,0.29,12.71,0.43,23.5,0.43c11.04,0,18.87-0.14,23.5-0.43
	l0.69,0.64v4.92l-0.76,0.64c-5.19,0.29-8.16,0.52-8.93,0.71c-1.47,0.38-2.34,1.26-2.59,2.64c-0.66,3.42-0.99,10.79-0.99,22.1v11.76
	c5.39,0.24,12.82,0.36,22.28,0.36c14.85,0,24.11-0.12,27.77-0.36v-11.76c0-11.31-0.33-18.67-0.99-22.1
	c-0.25-1.38-1.12-2.26-2.59-2.64c-0.76-0.19-3.74-0.43-8.93-0.71l-0.84-0.71v-4.85l0.76-0.64c4.93,0.29,12.77,0.43,23.5,0.43
	c11.09,0,18.92-0.14,23.5-0.43l0.76,0.64v4.92l-0.69,0.64c-5.29,0.29-8.29,0.52-9,0.71c-1.47,0.38-2.34,1.26-2.59,2.64
	c-0.66,3.42-0.99,10.79-0.99,22.1v37.7c0,11.31,0.33,18.67,0.99,22.1c0.25,1.38,1.12,2.26,2.59,2.64c0.76,0.19,3.74,0.43,8.93,0.71
	l0.76,0.71V338.14z"/>
<path d="M1569.66,338.14l-0.69,0.71c-11.29-0.29-18.11-0.43-20.45-0.43c-9.36,0-18.06,0.14-26.09,0.43l-0.69-0.71v-4.49l0.76-0.78
	l6.64-0.36c2.8-0.14,4.2-1.07,4.2-2.78c0-1-0.71-3.23-2.14-6.7l-6.18-15.04c-7.02-0.1-14.19-0.14-21.51-0.14
	c-3.97,0-9.87,0.05-17.7,0.14l-3.36,8.7c-2.54,6.6-3.81,10.74-3.81,12.4c0,1.81,1.2,2.88,3.59,3.21c1.32,0.19,3.92,0.38,7.78,0.57
	l0.76,0.71v4.56l-0.76,0.71c-9.41-0.29-15.46-0.43-18.16-0.43c-2.09,0-7.25,0.14-15.49,0.43l-0.76-0.64v-4.63l0.84-0.71
	c5.24-0.29,8.46-1.26,9.65-2.92c1.2-1.66,5.68-11.57,13.47-29.72l19.91-46.54c1.47-3.61,3.71-9.05,6.71-16.32h10.83l40.43,88.88
	c1.58,3.37,3,5.27,4.27,5.7c1.68,0.57,4.09,0.86,7.25,0.86l0.69,0.78V338.14z M1521.3,299.8l-16.33-37.35l-15.64,37.35
	c4.17,0.14,9.59,0.21,16.25,0.21C1512.04,300.01,1517.28,299.94,1521.3,299.8z"/>
<text transform="matrix(1.0522 0 0 1 468.3237 594.538)" class="st2 st3">P A L I K H E L</text>
</svg>
